<svg width="272" height="48" viewBox="0 0 272 48" fill="none" xmlns="http://www.w3.org/2000/svg">
<rect width="272" height="48" rx="6" fill="#E5E7EB"/>
<g clip-path="url(#clip0_1656_1041)">
<path d="M32.0001 12.2812C25.3735 12.2812 20 17.6538 20 24.2813C20 29.5833 23.4384 34.0815 28.2064 35.6682C28.8061 35.7793 29.0263 35.4079 29.0263 35.0909C29.0263 34.8048 29.0151 33.8595 29.01 32.8568C25.6716 33.5827 24.9672 31.4409 24.9672 31.4409C24.4213 30.0539 23.6347 29.685 23.6347 29.685C22.546 28.9402 23.7168 28.9556 23.7168 28.9556C24.9218 29.0402 25.5563 30.1922 25.5563 30.1922C26.6266 32.0267 28.3636 31.4963 29.0484 31.1897C29.1561 30.4142 29.4671 29.8847 29.8103 29.5851C27.1449 29.2817 24.343 28.2527 24.343 23.6546C24.343 22.3445 24.8117 21.2739 25.5793 20.4336C25.4548 20.1313 25.044 18.9109 25.6956 17.2579C25.6956 17.2579 26.7033 16.9354 28.9965 18.488C29.9537 18.2221 30.9803 18.0888 32.0001 18.0842C33.0199 18.0888 34.0473 18.222 35.0063 18.488C37.2967 16.9355 38.303 17.258 38.303 17.258C38.9562 18.9108 38.5452 20.1314 38.4207 20.4336C39.1901 21.2739 39.6556 22.3445 39.6556 23.6546C39.6556 28.2637 36.8484 29.2785 34.1762 29.5756C34.6066 29.948 34.9902 30.6783 34.9902 31.7978C34.9902 33.4034 34.9763 34.6957 34.9763 35.0909C34.9763 35.4103 35.1923 35.7845 35.8005 35.6665C40.5659 34.0781 44 29.5816 44 24.2814C44 17.6538 38.6273 12.2812 32.0001 12.2812ZM24.4945 29.3756C24.468 29.4352 24.3742 29.4532 24.2888 29.4122C24.2017 29.3731 24.1528 29.2918 24.181 29.232C24.2068 29.1706 24.3009 29.1534 24.3877 29.1946C24.4749 29.2338 24.5246 29.3158 24.4945 29.3756ZM25.0847 29.9023C25.0275 29.9554 24.9156 29.9307 24.8397 29.8469C24.7612 29.7633 24.7465 29.6513 24.8045 29.5975C24.8636 29.5445 24.972 29.5693 25.0507 29.6529C25.1293 29.7376 25.1444 29.8487 25.0847 29.9023ZM25.4897 30.5762C25.4161 30.6273 25.2959 30.5794 25.2216 30.4727C25.1481 30.366 25.1481 30.238 25.2232 30.1868C25.2977 30.1355 25.4161 30.1816 25.4914 30.2875C25.5647 30.396 25.5647 30.524 25.4896 30.5763L25.4897 30.5762ZM26.1745 31.3567C26.1088 31.4292 25.9686 31.4097 25.866 31.3107C25.7611 31.214 25.732 31.0767 25.798 31.0042C25.8645 30.9314 26.0054 30.9518 26.1088 31.0501C26.2128 31.1467 26.2447 31.2849 26.1745 31.3567ZM27.0597 31.6201C27.0306 31.7141 26.8956 31.7569 26.7597 31.7169C26.624 31.6758 26.5352 31.5657 26.5626 31.4708C26.5908 31.3761 26.7264 31.3316 26.8633 31.3744C26.9988 31.4153 27.0879 31.5245 27.0597 31.6201ZM28.0669 31.7319C28.0703 31.8308 27.9551 31.9129 27.8124 31.9147C27.6689 31.9179 27.5528 31.8379 27.5512 31.7404C27.5512 31.6405 27.6639 31.5593 27.8074 31.5568C27.9501 31.554 28.0669 31.6335 28.0669 31.7319ZM29.0564 31.694C29.0735 31.7905 28.9744 31.8897 28.8327 31.9162C28.6934 31.9416 28.5644 31.8819 28.5467 31.7862C28.5295 31.6872 28.6304 31.588 28.7695 31.5624C28.9114 31.5378 29.0383 31.5958 29.0564 31.694Z" fill="#161614"/>
</g>
<path d="M59.4716 18.3636V30H57.0114V18.3636H59.4716ZM63.8707 24.9545V30H61.4503V21.2727H63.7571V22.8125H63.8594C64.0526 22.3049 64.3764 21.9034 64.831 21.608C65.2855 21.3087 65.8366 21.1591 66.4844 21.1591C67.0904 21.1591 67.6188 21.2917 68.0696 21.5568C68.5204 21.822 68.8707 22.2008 69.1207 22.6932C69.3707 23.1818 69.4957 23.7652 69.4957 24.4432V30H67.0753V24.875C67.0791 24.3409 66.9427 23.9242 66.6662 23.625C66.3897 23.322 66.009 23.1705 65.5241 23.1705C65.1984 23.1705 64.9105 23.2405 64.6605 23.3807C64.4143 23.5208 64.2211 23.7254 64.081 23.9943C63.9446 24.2595 63.8745 24.5795 63.8707 24.9545ZM78.6648 23.7614L76.4489 23.8977C76.411 23.7083 76.3295 23.5379 76.2045 23.3864C76.0795 23.2311 75.9148 23.108 75.7102 23.017C75.5095 22.9223 75.2689 22.875 74.9886 22.875C74.6136 22.875 74.2973 22.9545 74.0398 23.1136C73.7822 23.2689 73.6534 23.4773 73.6534 23.7386C73.6534 23.947 73.7367 24.1231 73.9034 24.267C74.0701 24.411 74.3561 24.5265 74.7614 24.6136L76.3409 24.9318C77.1894 25.1061 77.822 25.3864 78.2386 25.7727C78.6553 26.1591 78.8636 26.6667 78.8636 27.2955C78.8636 27.8674 78.6951 28.3693 78.358 28.8011C78.0246 29.233 77.5663 29.5701 76.983 29.8125C76.4034 30.0511 75.7348 30.1705 74.9773 30.1705C73.822 30.1705 72.9015 29.9299 72.2159 29.4489C71.5341 28.964 71.1345 28.3049 71.017 27.4716L73.3977 27.3466C73.4697 27.6989 73.6439 27.9678 73.9205 28.1534C74.197 28.3352 74.5511 28.4261 74.983 28.4261C75.4072 28.4261 75.7481 28.3447 76.0057 28.1818C76.267 28.0152 76.3996 27.8011 76.4034 27.5398C76.3996 27.3201 76.3068 27.1402 76.125 27C75.9432 26.8561 75.6629 26.7462 75.2841 26.6705L73.7727 26.3693C72.9205 26.1989 72.286 25.9034 71.8693 25.483C71.4564 25.0625 71.25 24.5265 71.25 23.875C71.25 23.3144 71.4015 22.8314 71.7045 22.4261C72.0114 22.0208 72.4413 21.7083 72.9943 21.4886C73.5511 21.2689 74.2027 21.1591 74.9489 21.1591C76.0511 21.1591 76.9186 21.392 77.5511 21.858C78.1875 22.3239 78.5587 22.9583 78.6648 23.7614ZM85.0298 21.2727V23.0909H79.7741V21.2727H85.0298ZM80.9673 19.1818H83.3878V27.3182C83.3878 27.5417 83.4219 27.7159 83.4901 27.8409C83.5582 27.9621 83.6529 28.0473 83.7741 28.0966C83.8991 28.1458 84.0431 28.1705 84.206 28.1705C84.3196 28.1705 84.4332 28.161 84.5469 28.142C84.6605 28.1193 84.7476 28.1023 84.8082 28.0909L85.1889 29.892C85.0677 29.9299 84.8973 29.9735 84.6776 30.0227C84.4579 30.0758 84.1908 30.108 83.8764 30.1193C83.2931 30.142 82.7817 30.0644 82.3423 29.8864C81.9067 29.7083 81.5677 29.4318 81.3253 29.0568C81.0829 28.6818 80.9635 28.2083 80.9673 27.6364V19.1818ZM89.0952 30.1648C88.5384 30.1648 88.0421 30.0682 87.6065 29.875C87.1709 29.678 86.8262 29.3883 86.5724 29.0057C86.3224 28.6193 86.1974 28.1383 86.1974 27.5625C86.1974 27.0777 86.2865 26.6705 86.4645 26.3409C86.6425 26.0114 86.8849 25.7462 87.1918 25.5455C87.4986 25.3447 87.8471 25.1932 88.2372 25.0909C88.6312 24.9886 89.044 24.9167 89.4759 24.875C89.9834 24.822 90.3925 24.7727 90.7031 24.7273C91.0137 24.678 91.2391 24.6061 91.3793 24.5114C91.5194 24.4167 91.5895 24.2765 91.5895 24.0909V24.0568C91.5895 23.697 91.4759 23.4186 91.2486 23.2216C91.0251 23.0246 90.7069 22.9261 90.294 22.9261C89.8584 22.9261 89.5118 23.0227 89.2543 23.2159C88.9967 23.4053 88.8262 23.6439 88.7429 23.9318L86.5043 23.75C86.6179 23.2197 86.8414 22.7614 87.1747 22.375C87.508 21.9848 87.938 21.6856 88.4645 21.4773C88.9948 21.2652 89.6084 21.1591 90.3054 21.1591C90.7902 21.1591 91.2543 21.2159 91.6974 21.3295C92.1444 21.4432 92.5402 21.6193 92.8849 21.858C93.2334 22.0966 93.508 22.4034 93.7088 22.7784C93.9096 23.1496 94.0099 23.5947 94.0099 24.1136V30H91.7145V28.7898H91.6463C91.5062 29.0625 91.3187 29.303 91.0838 29.5114C90.849 29.7159 90.5668 29.8769 90.2372 29.9943C89.9077 30.108 89.527 30.1648 89.0952 30.1648ZM89.7884 28.4943C90.1444 28.4943 90.4588 28.4242 90.7315 28.2841C91.0043 28.1402 91.2183 27.947 91.3736 27.7045C91.5289 27.4621 91.6065 27.1875 91.6065 26.8807V25.9545C91.5308 26.0038 91.4266 26.0492 91.294 26.0909C91.1652 26.1288 91.0194 26.1648 90.8565 26.1989C90.6937 26.2292 90.5308 26.2576 90.3679 26.2841C90.205 26.3068 90.0573 26.3277 89.9247 26.3466C89.6406 26.3883 89.3925 26.4545 89.1804 26.5455C88.9683 26.6364 88.8035 26.7595 88.6861 26.9148C88.5687 27.0663 88.5099 27.2557 88.5099 27.483C88.5099 27.8125 88.6293 28.0644 88.8679 28.2386C89.1103 28.4091 89.4171 28.4943 89.7884 28.4943ZM98.3082 18.3636V30H95.8878V18.3636H98.3082ZM102.668 18.3636V30H100.247V18.3636H102.668ZM108.355 30V18.3636H116.06V20.392H110.815V23.1648H115.548V25.1932H110.815V30H108.355ZM117.528 30V21.2727H119.875V22.7955H119.966C120.125 22.2538 120.392 21.8447 120.767 21.5682C121.142 21.2879 121.574 21.1477 122.062 21.1477C122.184 21.1477 122.314 21.1553 122.455 21.1705C122.595 21.1856 122.718 21.2064 122.824 21.233V23.3807C122.71 23.3466 122.553 23.3163 122.352 23.2898C122.152 23.2633 121.968 23.25 121.801 23.25C121.445 23.25 121.127 23.3277 120.847 23.483C120.57 23.6345 120.35 23.8466 120.188 24.1193C120.028 24.392 119.949 24.7064 119.949 25.0625V30H117.528ZM127.612 30.1705C126.73 30.1705 125.966 29.983 125.322 29.608C124.682 29.2292 124.188 28.7027 123.839 28.0284C123.491 27.3504 123.317 26.5644 123.317 25.6705C123.317 24.7689 123.491 23.9811 123.839 23.3068C124.188 22.6288 124.682 22.1023 125.322 21.7273C125.966 21.3485 126.73 21.1591 127.612 21.1591C128.495 21.1591 129.256 21.3485 129.896 21.7273C130.54 22.1023 131.036 22.6288 131.385 23.3068C131.733 23.9811 131.908 24.7689 131.908 25.6705C131.908 26.5644 131.733 27.3504 131.385 28.0284C131.036 28.7027 130.54 29.2292 129.896 29.608C129.256 29.983 128.495 30.1705 127.612 30.1705ZM127.624 28.2955C128.025 28.2955 128.36 28.1818 128.629 27.9545C128.898 27.7235 129.101 27.4091 129.237 27.0114C129.377 26.6136 129.447 26.161 129.447 25.6534C129.447 25.1458 129.377 24.6932 129.237 24.2955C129.101 23.8977 128.898 23.5833 128.629 23.3523C128.36 23.1212 128.025 23.0057 127.624 23.0057C127.218 23.0057 126.877 23.1212 126.601 23.3523C126.328 23.5833 126.122 23.8977 125.982 24.2955C125.845 24.6932 125.777 25.1458 125.777 25.6534C125.777 26.161 125.845 26.6136 125.982 27.0114C126.122 27.4091 126.328 27.7235 126.601 27.9545C126.877 28.1818 127.218 28.2955 127.624 28.2955ZM133.482 30V21.2727H135.788V22.8125H135.891C136.072 22.3011 136.375 21.8977 136.8 21.6023C137.224 21.3068 137.732 21.1591 138.322 21.1591C138.921 21.1591 139.43 21.3087 139.851 21.608C140.271 21.9034 140.552 22.3049 140.692 22.8125H140.783C140.961 22.3125 141.283 21.9129 141.749 21.6136C142.218 21.3106 142.773 21.1591 143.413 21.1591C144.228 21.1591 144.889 21.4186 145.396 21.9375C145.908 22.4527 146.163 23.1837 146.163 24.1307V30H143.749V24.608C143.749 24.1231 143.62 23.7595 143.362 23.517C143.105 23.2746 142.783 23.1534 142.396 23.1534C141.957 23.1534 141.614 23.2936 141.368 23.5739C141.122 23.8504 140.999 24.2159 140.999 24.6705V30H138.652V24.5568C138.652 24.1288 138.529 23.7879 138.283 23.5341C138.04 23.2803 137.72 23.1534 137.322 23.1534C137.054 23.1534 136.811 23.2216 136.595 23.358C136.383 23.4905 136.214 23.678 136.089 23.9205C135.964 24.1591 135.902 24.4394 135.902 24.7614V30H133.482ZM158.136 21.7102C158.091 21.2519 157.896 20.8958 157.551 20.642C157.206 20.3883 156.739 20.2614 156.148 20.2614C155.746 20.2614 155.407 20.3182 155.131 20.4318C154.854 20.5417 154.642 20.6951 154.494 20.892C154.35 21.089 154.278 21.3125 154.278 21.5625C154.271 21.7708 154.314 21.9527 154.409 22.108C154.508 22.2633 154.642 22.3977 154.812 22.5114C154.983 22.6212 155.18 22.7178 155.403 22.8011C155.627 22.8807 155.866 22.9489 156.119 23.0057L157.165 23.2557C157.672 23.3693 158.138 23.5208 158.562 23.7102C158.987 23.8996 159.354 24.1326 159.665 24.4091C159.975 24.6856 160.216 25.0114 160.386 25.3864C160.561 25.7614 160.65 26.1913 160.653 26.6761C160.65 27.3883 160.468 28.0057 160.108 28.5284C159.752 29.0473 159.237 29.4508 158.562 29.7386C157.892 30.0227 157.083 30.1648 156.136 30.1648C155.197 30.1648 154.379 30.0208 153.682 29.733C152.989 29.4451 152.447 29.0189 152.057 28.4545C151.67 27.8864 151.468 27.1837 151.449 26.3466H153.83C153.856 26.7367 153.968 27.0625 154.165 27.3239C154.366 27.5814 154.633 27.7765 154.966 27.9091C155.303 28.0379 155.684 28.1023 156.108 28.1023C156.525 28.1023 156.886 28.0417 157.193 27.9205C157.504 27.7992 157.744 27.6307 157.915 27.4148C158.085 27.1989 158.17 26.9508 158.17 26.6705C158.17 26.4091 158.093 26.1894 157.938 26.0114C157.786 25.8333 157.563 25.6818 157.267 25.5568C156.975 25.4318 156.617 25.3182 156.193 25.2159L154.926 24.8977C153.945 24.6591 153.17 24.286 152.602 23.7784C152.034 23.2708 151.752 22.5871 151.756 21.7273C151.752 21.0227 151.939 20.4072 152.318 19.8807C152.701 19.3542 153.225 18.9432 153.892 18.6477C154.559 18.3523 155.316 18.2045 156.165 18.2045C157.028 18.2045 157.782 18.3523 158.426 18.6477C159.074 18.9432 159.578 19.3542 159.938 19.8807C160.297 20.4072 160.483 21.017 160.494 21.7102H158.136ZM166.206 30.1705C165.323 30.1705 164.56 29.983 163.916 29.608C163.276 29.2292 162.782 28.7027 162.433 28.0284C162.085 27.3504 161.911 26.5644 161.911 25.6705C161.911 24.7689 162.085 23.9811 162.433 23.3068C162.782 22.6288 163.276 22.1023 163.916 21.7273C164.56 21.3485 165.323 21.1591 166.206 21.1591C167.089 21.1591 167.85 21.3485 168.49 21.7273C169.134 22.1023 169.63 22.6288 169.979 23.3068C170.327 23.9811 170.501 24.7689 170.501 25.6705C170.501 26.5644 170.327 27.3504 169.979 28.0284C169.63 28.7027 169.134 29.2292 168.49 29.608C167.85 29.983 167.089 30.1705 166.206 30.1705ZM166.217 28.2955C166.619 28.2955 166.954 28.1818 167.223 27.9545C167.492 27.7235 167.695 27.4091 167.831 27.0114C167.971 26.6136 168.041 26.161 168.041 25.6534C168.041 25.1458 167.971 24.6932 167.831 24.2955C167.695 23.8977 167.492 23.5833 167.223 23.3523C166.954 23.1212 166.619 23.0057 166.217 23.0057C165.812 23.0057 165.471 23.1212 165.195 23.3523C164.922 23.5833 164.715 23.8977 164.575 24.2955C164.439 24.6932 164.371 25.1458 164.371 25.6534C164.371 26.161 164.439 26.6136 164.575 27.0114C164.715 27.4091 164.922 27.7235 165.195 27.9545C165.471 28.1818 165.812 28.2955 166.217 28.2955ZM177.672 26.2841V21.2727H180.092V30H177.768V28.4148H177.678C177.481 28.9261 177.153 29.3371 176.695 29.6477C176.24 29.9583 175.685 30.1136 175.03 30.1136C174.446 30.1136 173.933 29.9811 173.49 29.7159C173.047 29.4508 172.7 29.0739 172.45 28.5852C172.204 28.0966 172.079 27.5114 172.075 26.8295V21.2727H174.496V26.3977C174.5 26.9129 174.638 27.3201 174.911 27.6193C175.183 27.9186 175.549 28.0682 176.007 28.0682C176.299 28.0682 176.571 28.0019 176.825 27.8693C177.079 27.733 177.284 27.5322 177.439 27.267C177.598 27.0019 177.676 26.6742 177.672 26.2841ZM182.028 30V21.2727H184.375V22.7955H184.466C184.625 22.2538 184.892 21.8447 185.267 21.5682C185.642 21.2879 186.074 21.1477 186.562 21.1477C186.684 21.1477 186.814 21.1553 186.955 21.1705C187.095 21.1856 187.218 21.2064 187.324 21.233V23.3807C187.21 23.3466 187.053 23.3163 186.852 23.2898C186.652 23.2633 186.468 23.25 186.301 23.25C185.945 23.25 185.627 23.3277 185.347 23.483C185.07 23.6345 184.85 23.8466 184.688 24.1193C184.528 24.392 184.449 24.7064 184.449 25.0625V30H182.028ZM192.112 30.1705C191.218 30.1705 190.449 29.9811 189.805 29.6023C189.165 29.2197 188.673 28.6894 188.328 28.0114C187.987 27.3333 187.817 26.553 187.817 25.6705C187.817 24.7765 187.989 23.9924 188.334 23.3182C188.682 22.6402 189.177 22.1117 189.817 21.733C190.457 21.3504 191.218 21.1591 192.101 21.1591C192.862 21.1591 193.529 21.2973 194.101 21.5739C194.673 21.8504 195.125 22.2386 195.459 22.7386C195.792 23.2386 195.976 23.8258 196.01 24.5H193.726C193.661 24.0644 193.491 23.714 193.214 23.4489C192.942 23.1799 192.584 23.0455 192.141 23.0455C191.766 23.0455 191.438 23.1477 191.158 23.3523C190.881 23.553 190.665 23.8466 190.51 24.233C190.355 24.6193 190.277 25.0871 190.277 25.6364C190.277 26.1932 190.353 26.6667 190.504 27.0568C190.66 27.447 190.877 27.7443 191.158 27.9489C191.438 28.1534 191.766 28.2557 192.141 28.2557C192.417 28.2557 192.665 28.1989 192.885 28.0852C193.108 27.9716 193.292 27.8068 193.436 27.5909C193.584 27.3712 193.68 27.108 193.726 26.8011H196.01C195.972 27.4678 195.79 28.0549 195.464 28.5625C195.143 29.0663 194.697 29.4602 194.129 29.7443C193.561 30.0284 192.889 30.1705 192.112 30.1705ZM201.537 30.1705C200.639 30.1705 199.866 29.9886 199.219 29.625C198.575 29.2576 198.079 28.7386 197.73 28.0682C197.382 27.3939 197.207 26.5966 197.207 25.6761C197.207 24.7784 197.382 23.9905 197.73 23.3125C198.079 22.6345 198.569 22.1061 199.202 21.7273C199.838 21.3485 200.584 21.1591 201.44 21.1591C202.016 21.1591 202.552 21.2519 203.048 21.4375C203.548 21.6193 203.984 21.8939 204.355 22.2614C204.73 22.6288 205.022 23.0909 205.23 23.6477C205.438 24.2008 205.543 24.8485 205.543 25.5909V26.2557H198.173V24.7557H203.264C203.264 24.4072 203.188 24.0985 203.037 23.8295C202.885 23.5606 202.675 23.3504 202.406 23.1989C202.141 23.0436 201.832 22.9659 201.48 22.9659C201.113 22.9659 200.787 23.0511 200.503 23.2216C200.223 23.3883 200.003 23.6136 199.844 23.8977C199.685 24.178 199.603 24.4905 199.599 24.8352V26.2614C199.599 26.6932 199.679 27.0663 199.838 27.3807C200.001 27.6951 200.23 27.9375 200.526 28.108C200.821 28.2784 201.171 28.3636 201.577 28.3636C201.846 28.3636 202.092 28.3258 202.315 28.25C202.539 28.1742 202.73 28.0606 202.889 27.9091C203.048 27.7576 203.17 27.572 203.253 27.3523L205.491 27.5C205.378 28.0379 205.145 28.5076 204.793 28.9091C204.444 29.3068 203.993 29.6174 203.44 29.8409C202.891 30.0606 202.257 30.1705 201.537 30.1705ZM221.138 22.4375H218.649C218.604 22.1155 218.511 21.8295 218.371 21.5795C218.231 21.3258 218.051 21.1098 217.831 20.9318C217.611 20.7538 217.357 20.6174 217.07 20.5227C216.786 20.428 216.477 20.3807 216.143 20.3807C215.541 20.3807 215.017 20.5303 214.57 20.8295C214.123 21.125 213.776 21.5568 213.53 22.125C213.284 22.6894 213.161 23.375 213.161 24.1818C213.161 25.0114 213.284 25.7083 213.53 26.2727C213.78 26.8371 214.128 27.2633 214.575 27.5511C215.022 27.839 215.539 27.983 216.126 27.983C216.456 27.983 216.761 27.9394 217.041 27.8523C217.325 27.7652 217.577 27.6383 217.797 27.4716C218.017 27.3011 218.198 27.0947 218.342 26.8523C218.49 26.6098 218.592 26.3333 218.649 26.0227L221.138 26.0341C221.073 26.5682 220.912 27.0833 220.655 27.5795C220.401 28.072 220.058 28.5133 219.626 28.9034C219.198 29.2898 218.687 29.5966 218.092 29.8239C217.501 30.0473 216.833 30.1591 216.087 30.1591C215.049 30.1591 214.121 29.9242 213.303 29.4545C212.488 28.9848 211.844 28.3049 211.371 27.4148C210.901 26.5246 210.666 25.447 210.666 24.1818C210.666 22.9129 210.905 21.8333 211.382 20.9432C211.859 20.053 212.507 19.375 213.325 18.9091C214.143 18.4394 215.064 18.2045 216.087 18.2045C216.761 18.2045 217.386 18.2992 217.962 18.4886C218.541 18.678 219.054 18.9545 219.501 19.3182C219.948 19.678 220.312 20.1193 220.592 20.642C220.876 21.1648 221.058 21.7633 221.138 22.4375ZM226.8 30.1705C225.917 30.1705 225.154 29.983 224.51 29.608C223.87 29.2292 223.375 28.7027 223.027 28.0284C222.679 27.3504 222.504 26.5644 222.504 25.6705C222.504 24.7689 222.679 23.9811 223.027 23.3068C223.375 22.6288 223.87 22.1023 224.51 21.7273C225.154 21.3485 225.917 21.1591 226.8 21.1591C227.682 21.1591 228.444 21.3485 229.084 21.7273C229.728 22.1023 230.224 22.6288 230.572 23.3068C230.921 23.9811 231.095 24.7689 231.095 25.6705C231.095 26.5644 230.921 27.3504 230.572 28.0284C230.224 28.7027 229.728 29.2292 229.084 29.608C228.444 29.983 227.682 30.1705 226.8 30.1705ZM226.811 28.2955C227.213 28.2955 227.548 28.1818 227.817 27.9545C228.086 27.7235 228.288 27.4091 228.425 27.0114C228.565 26.6136 228.635 26.161 228.635 25.6534C228.635 25.1458 228.565 24.6932 228.425 24.2955C228.288 23.8977 228.086 23.5833 227.817 23.3523C227.548 23.1212 227.213 23.0057 226.811 23.0057C226.406 23.0057 226.065 23.1212 225.788 23.3523C225.516 23.5833 225.309 23.8977 225.169 24.2955C225.033 24.6932 224.964 25.1458 224.964 25.6534C224.964 26.161 225.033 26.6136 225.169 27.0114C225.309 27.4091 225.516 27.7235 225.788 27.9545C226.065 28.1818 226.406 28.2955 226.811 28.2955ZM235.885 30.142C235.222 30.142 234.622 29.9716 234.084 29.6307C233.55 29.286 233.125 28.7803 232.811 28.1136C232.5 27.4432 232.345 26.6212 232.345 25.6477C232.345 24.6477 232.506 23.8163 232.828 23.1534C233.15 22.4867 233.578 21.9886 234.112 21.6591C234.65 21.3258 235.239 21.1591 235.879 21.1591C236.368 21.1591 236.775 21.2424 237.101 21.4091C237.43 21.572 237.696 21.7765 237.896 22.0227C238.101 22.2652 238.256 22.5038 238.362 22.7386H238.436V18.3636H240.851V30H238.464V28.6023H238.362C238.249 28.8447 238.088 29.0852 237.879 29.3239C237.675 29.5587 237.408 29.7538 237.078 29.9091C236.752 30.0644 236.355 30.142 235.885 30.142ZM236.652 28.2159C237.042 28.2159 237.372 28.1098 237.641 27.8977C237.913 27.6818 238.122 27.3807 238.266 26.9943C238.413 26.608 238.487 26.1553 238.487 25.6364C238.487 25.1174 238.415 24.6667 238.271 24.2841C238.127 23.9015 237.919 23.6061 237.646 23.3977C237.374 23.1894 237.042 23.0852 236.652 23.0852C236.254 23.0852 235.919 23.1932 235.646 23.4091C235.374 23.625 235.167 23.9242 235.027 24.3068C234.887 24.6894 234.817 25.1326 234.817 25.6364C234.817 26.1439 234.887 26.5928 235.027 26.983C235.171 27.3693 235.377 27.6723 235.646 27.892C235.919 28.108 236.254 28.2159 236.652 28.2159ZM246.818 30.1705C245.92 30.1705 245.148 29.9886 244.5 29.625C243.856 29.2576 243.36 28.7386 243.011 28.0682C242.663 27.3939 242.489 26.5966 242.489 25.6761C242.489 24.7784 242.663 23.9905 243.011 23.3125C243.36 22.6345 243.85 22.1061 244.483 21.7273C245.119 21.3485 245.866 21.1591 246.722 21.1591C247.297 21.1591 247.833 21.2519 248.33 21.4375C248.83 21.6193 249.265 21.8939 249.636 22.2614C250.011 22.6288 250.303 23.0909 250.511 23.6477C250.72 24.2008 250.824 24.8485 250.824 25.5909V26.2557H243.455V24.7557H248.545C248.545 24.4072 248.47 24.0985 248.318 23.8295C248.167 23.5606 247.956 23.3504 247.688 23.1989C247.422 23.0436 247.114 22.9659 246.761 22.9659C246.394 22.9659 246.068 23.0511 245.784 23.2216C245.504 23.3883 245.284 23.6136 245.125 23.8977C244.966 24.178 244.884 24.4905 244.881 24.8352V26.2614C244.881 26.6932 244.96 27.0663 245.119 27.3807C245.282 27.6951 245.511 27.9375 245.807 28.108C246.102 28.2784 246.453 28.3636 246.858 28.3636C247.127 28.3636 247.373 28.3258 247.597 28.25C247.82 28.1742 248.011 28.0606 248.17 27.9091C248.33 27.7576 248.451 27.572 248.534 27.3523L250.773 27.5C250.659 28.0379 250.426 28.5076 250.074 28.9091C249.725 29.3068 249.275 29.6174 248.722 29.8409C248.172 30.0606 247.538 30.1705 246.818 30.1705Z" fill="#4B5563"/>
<defs>
<clipPath id="clip0_1656_1041">
<rect width="24" height="23.4375" fill="white" transform="translate(20 12.2812)"/>
</clipPath>
</defs>
</svg>
