<svg width="208" height="49" viewBox="0 0 208 49" fill="none" xmlns="http://www.w3.org/2000/svg">
<rect width="208" height="48.0938" rx="6" fill="#E5E7EB"/>
<g clip-path="url(#clip0_1648_1068)">
<path d="M31.9802 12.0033C31.9802 12.0033 39.0414 11.6864 42.7851 18.784H31.3793C31.3793 18.784 29.2268 18.7147 27.3881 21.326C26.8599 22.422 26.2922 23.551 26.9293 25.7761C26.0115 24.2212 22.0566 17.3349 22.0566 17.3349C22.0566 17.3349 24.8463 12.2839 31.9802 12.0033Z" fill="#EF3F36"/>
<path d="M42.4187 30.0215C42.4187 30.0215 39.1604 36.2971 31.145 35.9868C32.1354 34.2734 36.8495 26.1095 36.8495 26.1095C36.8495 26.1095 37.9885 24.2806 36.6449 21.3821C35.9614 20.3753 35.2649 19.3222 33.0201 18.7609C34.8259 18.7445 42.7654 18.7609 42.7654 18.7609C42.7654 18.7609 45.7397 23.7029 42.4187 30.0215Z" fill="#FCD900"/>
<path d="M21.5913 30.071C21.5913 30.071 17.785 24.1122 22.0633 17.3249C23.0504 19.0383 27.7646 27.2022 27.7646 27.2022C27.7646 27.2022 28.7814 29.1037 31.9604 29.3875C33.1721 29.2985 34.4331 29.2225 36.0442 27.562C35.156 29.1335 31.1713 36 31.1713 36C31.1713 36 25.4009 36.1056 21.5913 30.071Z" fill="#61BC5B"/>
<path d="M31.1416 36.0462L32.7459 29.3513C32.7459 29.3513 34.5088 29.2126 35.9878 27.5917C35.07 29.2061 31.1416 36.0462 31.1416 36.0462Z" fill="#5AB055"/>
<path d="M26.6057 24.099C26.6057 21.1478 28.9992 18.7543 31.9504 18.7543C34.9017 18.7543 37.2951 21.1478 37.2951 24.099C37.2951 27.0504 34.9017 29.4437 31.9504 29.4437C28.9992 29.4404 26.6057 27.0504 26.6057 24.099Z" fill="white"/>
<path d="M27.5005 24.099C27.5005 21.643 29.4912 19.649 31.9506 19.649C34.4067 19.649 36.4006 21.6397 36.4006 24.099C36.4006 26.5552 34.4101 28.5491 31.9506 28.5491C29.4945 28.5491 27.5005 26.5552 27.5005 24.099Z" fill="url(#paint0_linear_1648_1068)"/>
<path d="M42.7621 18.7642L36.1563 20.7021C36.1563 20.7021 35.1593 19.2396 33.0168 18.7642C34.8754 18.7543 42.7621 18.7642 42.7621 18.7642Z" fill="#EACA05"/>
<path d="M26.8006 25.5318C25.8728 23.9241 22.0566 17.3348 22.0566 17.3348L26.9491 22.1744C26.9491 22.1744 26.4472 23.2077 26.6355 24.6866L26.8006 25.5318Z" fill="#DF3A32"/>
</g>
<path d="M59.4716 18.4105V30.0469H57.0114V18.4105H59.4716ZM63.8707 25.0014V30.0469H61.4503V21.3196H63.7571V22.8594H63.8594C64.0526 22.3518 64.3764 21.9503 64.831 21.6548C65.2855 21.3556 65.8366 21.206 66.4844 21.206C67.0904 21.206 67.6188 21.3385 68.0696 21.6037C68.5204 21.8688 68.8707 22.2476 69.1207 22.7401C69.3707 23.2287 69.4957 23.812 69.4957 24.4901V30.0469H67.0753V24.9219C67.0791 24.3878 66.9427 23.9711 66.6662 23.6719C66.3897 23.3688 66.009 23.2173 65.5241 23.2173C65.1984 23.2173 64.9105 23.2874 64.6605 23.4276C64.4143 23.5677 64.2211 23.7723 64.081 24.0412C63.9446 24.3063 63.8745 24.6264 63.8707 25.0014ZM78.6648 23.8082L76.4489 23.9446C76.411 23.7552 76.3295 23.5848 76.2045 23.4332C76.0795 23.2779 75.9148 23.1548 75.7102 23.0639C75.5095 22.9692 75.2689 22.9219 74.9886 22.9219C74.6136 22.9219 74.2973 23.0014 74.0398 23.1605C73.7822 23.3158 73.6534 23.5241 73.6534 23.7855C73.6534 23.9938 73.7367 24.17 73.9034 24.3139C74.0701 24.4579 74.3561 24.5734 74.7614 24.6605L76.3409 24.9787C77.1894 25.1529 77.822 25.4332 78.2386 25.8196C78.6553 26.206 78.8636 26.7135 78.8636 27.3423C78.8636 27.9143 78.6951 28.4162 78.358 28.848C78.0246 29.2798 77.5663 29.617 76.983 29.8594C76.4034 30.098 75.7348 30.2173 74.9773 30.2173C73.822 30.2173 72.9015 29.9768 72.2159 29.4957C71.5341 29.0109 71.1345 28.3518 71.017 27.5185L73.3977 27.3935C73.4697 27.7457 73.6439 28.0147 73.9205 28.2003C74.197 28.3821 74.5511 28.473 74.983 28.473C75.4072 28.473 75.7481 28.3916 76.0057 28.2287C76.267 28.062 76.3996 27.848 76.4034 27.5866C76.3996 27.367 76.3068 27.187 76.125 27.0469C75.9432 26.9029 75.6629 26.7931 75.2841 26.7173L73.7727 26.4162C72.9205 26.2457 72.286 25.9503 71.8693 25.5298C71.4564 25.1094 71.25 24.5734 71.25 23.9219C71.25 23.3613 71.4015 22.8783 71.7045 22.473C72.0114 22.0677 72.4413 21.7552 72.9943 21.5355C73.5511 21.3158 74.2027 21.206 74.9489 21.206C76.0511 21.206 76.9186 21.4389 77.5511 21.9048C78.1875 22.3707 78.5587 23.0052 78.6648 23.8082ZM85.0298 21.3196V23.1378H79.7741V21.3196H85.0298ZM80.9673 19.2287H83.3878V27.3651C83.3878 27.5885 83.4219 27.7628 83.4901 27.8878C83.5582 28.009 83.6529 28.0942 83.7741 28.1435C83.8991 28.1927 84.0431 28.2173 84.206 28.2173C84.3196 28.2173 84.4332 28.2079 84.5469 28.1889C84.6605 28.1662 84.7476 28.1491 84.8082 28.1378L85.1889 29.9389C85.0677 29.9768 84.8973 30.0204 84.6776 30.0696C84.4579 30.1226 84.1908 30.1548 83.8764 30.1662C83.2931 30.1889 82.7817 30.1113 82.3423 29.9332C81.9067 29.7552 81.5677 29.4787 81.3253 29.1037C81.0829 28.7287 80.9635 28.2552 80.9673 27.6832V19.2287ZM89.0952 30.2116C88.5384 30.2116 88.0421 30.1151 87.6065 29.9219C87.1709 29.7249 86.8262 29.4351 86.5724 29.0526C86.3224 28.6662 86.1974 28.1851 86.1974 27.6094C86.1974 27.1245 86.2865 26.7173 86.4645 26.3878C86.6425 26.0582 86.8849 25.7931 87.1918 25.5923C87.4986 25.3916 87.8471 25.2401 88.2372 25.1378C88.6312 25.0355 89.044 24.9635 89.4759 24.9219C89.9834 24.8688 90.3925 24.8196 90.7031 24.7741C91.0137 24.7249 91.2391 24.6529 91.3793 24.5582C91.5194 24.4635 91.5895 24.3234 91.5895 24.1378V24.1037C91.5895 23.7438 91.4759 23.4654 91.2486 23.2685C91.0251 23.0715 90.7069 22.973 90.294 22.973C89.8584 22.973 89.5118 23.0696 89.2543 23.2628C88.9967 23.4522 88.8262 23.6908 88.7429 23.9787L86.5043 23.7969C86.6179 23.2666 86.8414 22.8082 87.1747 22.4219C87.508 22.0317 87.938 21.7325 88.4645 21.5241C88.9948 21.312 89.6084 21.206 90.3054 21.206C90.7902 21.206 91.2543 21.2628 91.6974 21.3764C92.1444 21.4901 92.5402 21.6662 92.8849 21.9048C93.2334 22.1435 93.508 22.4503 93.7088 22.8253C93.9096 23.1965 94.0099 23.6416 94.0099 24.1605V30.0469H91.7145V28.8366H91.6463C91.5062 29.1094 91.3187 29.3499 91.0838 29.5582C90.849 29.7628 90.5668 29.9238 90.2372 30.0412C89.9077 30.1548 89.527 30.2116 89.0952 30.2116ZM89.7884 28.5412C90.1444 28.5412 90.4588 28.4711 90.7315 28.331C91.0043 28.187 91.2183 27.9938 91.3736 27.7514C91.5289 27.509 91.6065 27.2344 91.6065 26.9276V26.0014C91.5308 26.0507 91.4266 26.0961 91.294 26.1378C91.1652 26.1757 91.0194 26.2116 90.8565 26.2457C90.6937 26.276 90.5308 26.3045 90.3679 26.331C90.205 26.3537 90.0573 26.3745 89.9247 26.3935C89.6406 26.4351 89.3925 26.5014 89.1804 26.5923C88.9683 26.6832 88.8035 26.8063 88.6861 26.9616C88.5687 27.1132 88.5099 27.3026 88.5099 27.5298C88.5099 27.8594 88.6293 28.1113 88.8679 28.2855C89.1103 28.456 89.4171 28.5412 89.7884 28.5412ZM98.3082 18.4105V30.0469H95.8878V18.4105H98.3082ZM102.668 18.4105V30.0469H100.247V18.4105H102.668ZM108.31 30.0469V21.3196H110.73V30.0469H108.31ZM109.526 20.1946C109.166 20.1946 108.857 20.0753 108.599 19.8366C108.346 19.5942 108.219 19.3045 108.219 18.9673C108.219 18.634 108.346 18.348 108.599 18.1094C108.857 17.867 109.166 17.7457 109.526 17.7457C109.885 17.7457 110.192 17.867 110.446 18.1094C110.704 18.348 110.832 18.634 110.832 18.9673C110.832 19.3045 110.704 19.5942 110.446 19.8366C110.192 20.0753 109.885 20.1946 109.526 20.1946ZM115.089 25.0014V30.0469H112.669V21.3196H114.976V22.8594H115.078C115.271 22.3518 115.595 21.9503 116.05 21.6548C116.504 21.3556 117.055 21.206 117.703 21.206C118.309 21.206 118.838 21.3385 119.288 21.6037C119.739 21.8688 120.089 22.2476 120.339 22.7401C120.589 23.2287 120.714 23.812 120.714 24.4901V30.0469H118.294V24.9219C118.298 24.3878 118.161 23.9711 117.885 23.6719C117.608 23.3688 117.228 23.2173 116.743 23.2173C116.417 23.2173 116.129 23.2874 115.879 23.4276C115.633 23.5677 115.44 23.7723 115.3 24.0412C115.163 24.3063 115.093 24.6264 115.089 25.0014ZM136.638 22.4844H134.149C134.104 22.1624 134.011 21.8764 133.871 21.6264C133.731 21.3726 133.551 21.1567 133.331 20.9787C133.111 20.8007 132.857 20.6643 132.57 20.5696C132.286 20.4749 131.977 20.4276 131.643 20.4276C131.041 20.4276 130.517 20.5772 130.07 20.8764C129.623 21.1719 129.276 21.6037 129.03 22.1719C128.784 22.7363 128.661 23.4219 128.661 24.2287C128.661 25.0582 128.784 25.7552 129.03 26.3196C129.28 26.884 129.628 27.3101 130.075 27.598C130.522 27.8859 131.039 28.0298 131.626 28.0298C131.956 28.0298 132.261 27.9863 132.541 27.8991C132.825 27.812 133.077 27.6851 133.297 27.5185C133.517 27.348 133.698 27.1416 133.842 26.8991C133.99 26.6567 134.092 26.3802 134.149 26.0696L136.638 26.081C136.573 26.6151 136.412 27.1302 136.155 27.6264C135.901 28.1188 135.558 28.5601 135.126 28.9503C134.698 29.3366 134.187 29.6435 133.592 29.8707C133.001 30.0942 132.333 30.206 131.587 30.206C130.549 30.206 129.621 29.9711 128.803 29.5014C127.988 29.0317 127.344 28.3518 126.871 27.4616C126.401 26.5715 126.166 25.4938 126.166 24.2287C126.166 22.9598 126.405 21.8802 126.882 20.9901C127.359 20.0999 128.007 19.4219 128.825 18.956C129.643 18.4863 130.564 18.2514 131.587 18.2514C132.261 18.2514 132.886 18.3461 133.462 18.5355C134.041 18.7249 134.554 19.0014 135.001 19.3651C135.448 19.7249 135.812 20.1662 136.092 20.6889C136.376 21.2116 136.558 21.8101 136.638 22.4844ZM140.777 25.0014V30.0469H138.357V18.4105H140.709V22.8594H140.811C141.008 22.3442 141.326 21.9408 141.766 21.6491C142.205 21.3537 142.756 21.206 143.419 21.206C144.025 21.206 144.554 21.3385 145.004 21.6037C145.459 21.8651 145.811 22.242 146.061 22.7344C146.315 23.223 146.44 23.8082 146.436 24.4901V30.0469H144.016V24.9219C144.019 24.384 143.883 23.9654 143.607 23.6662C143.334 23.367 142.951 23.2173 142.459 23.2173C142.129 23.2173 141.838 23.2874 141.584 23.4276C141.334 23.5677 141.137 23.7723 140.993 24.0412C140.853 24.3063 140.781 24.6264 140.777 25.0014ZM148.341 30.0469V21.3196H150.688V22.8423H150.778C150.938 22.3007 151.205 21.8916 151.58 21.6151C151.955 21.3348 152.386 21.1946 152.875 21.1946C152.996 21.1946 153.127 21.2022 153.267 21.2173C153.407 21.2325 153.53 21.2533 153.636 21.2798V23.4276C153.523 23.3935 153.366 23.3632 153.165 23.3366C152.964 23.3101 152.78 23.2969 152.614 23.2969C152.258 23.2969 151.939 23.3745 151.659 23.5298C151.383 23.6813 151.163 23.8935 151 24.1662C150.841 24.4389 150.761 24.7533 150.761 25.1094V30.0469H148.341ZM158.425 30.2173C157.542 30.2173 156.779 30.0298 156.135 29.6548C155.495 29.276 155 28.7495 154.652 28.0753C154.304 27.3973 154.129 26.6113 154.129 25.7173C154.129 24.8158 154.304 24.0279 154.652 23.3537C155 22.6757 155.495 22.1491 156.135 21.7741C156.779 21.3954 157.542 21.206 158.425 21.206C159.307 21.206 160.069 21.3954 160.709 21.7741C161.353 22.1491 161.849 22.6757 162.197 23.3537C162.546 24.0279 162.72 24.8158 162.72 25.7173C162.72 26.6113 162.546 27.3973 162.197 28.0753C161.849 28.7495 161.353 29.276 160.709 29.6548C160.069 30.0298 159.307 30.2173 158.425 30.2173ZM158.436 28.3423C158.838 28.3423 159.173 28.2287 159.442 28.0014C159.711 27.7704 159.913 27.456 160.05 27.0582C160.19 26.6605 160.26 26.2079 160.26 25.7003C160.26 25.1927 160.19 24.7401 160.05 24.3423C159.913 23.9446 159.711 23.6302 159.442 23.3991C159.173 23.1681 158.838 23.0526 158.436 23.0526C158.031 23.0526 157.69 23.1681 157.413 23.3991C157.141 23.6302 156.934 23.9446 156.794 24.3423C156.658 24.7401 156.589 25.1927 156.589 25.7003C156.589 26.2079 156.658 26.6605 156.794 27.0582C156.934 27.456 157.141 27.7704 157.413 28.0014C157.69 28.2287 158.031 28.3423 158.436 28.3423ZM164.294 30.0469V21.3196H166.601V22.8594H166.703C166.885 22.348 167.188 21.9446 167.612 21.6491C168.036 21.3537 168.544 21.206 169.135 21.206C169.733 21.206 170.243 21.3556 170.663 21.6548C171.084 21.9503 171.364 22.3518 171.504 22.8594H171.595C171.773 22.3594 172.095 21.9598 172.561 21.6605C173.031 21.3575 173.586 21.206 174.226 21.206C175.04 21.206 175.701 21.4654 176.209 21.9844C176.72 22.4995 176.976 23.2306 176.976 24.1776V30.0469H174.561V24.6548C174.561 24.17 174.432 23.8063 174.175 23.5639C173.917 23.3215 173.595 23.2003 173.209 23.2003C172.769 23.2003 172.427 23.3404 172.18 23.6207C171.934 23.8973 171.811 24.2628 171.811 24.7173V30.0469H169.464V24.6037C169.464 24.1757 169.341 23.8348 169.095 23.581C168.853 23.3272 168.533 23.2003 168.135 23.2003C167.866 23.2003 167.624 23.2685 167.408 23.4048C167.196 23.5374 167.027 23.7249 166.902 23.9673C166.777 24.206 166.714 24.4863 166.714 24.8082V30.0469H164.294ZM182.865 30.2173C181.967 30.2173 181.195 30.0355 180.547 29.6719C179.903 29.3045 179.407 28.7855 179.058 28.1151C178.71 27.4408 178.536 26.6435 178.536 25.723C178.536 24.8253 178.71 24.0374 179.058 23.3594C179.407 22.6813 179.897 22.1529 180.53 21.7741C181.166 21.3954 181.912 21.206 182.768 21.206C183.344 21.206 183.88 21.2988 184.376 21.4844C184.876 21.6662 185.312 21.9408 185.683 22.3082C186.058 22.6757 186.35 23.1378 186.558 23.6946C186.767 24.2476 186.871 24.8954 186.871 25.6378V26.3026H179.501V24.8026H184.592C184.592 24.4541 184.517 24.1454 184.365 23.8764C184.214 23.6075 184.003 23.3973 183.734 23.2457C183.469 23.0904 183.161 23.0128 182.808 23.0128C182.441 23.0128 182.115 23.098 181.831 23.2685C181.551 23.4351 181.331 23.6605 181.172 23.9446C181.013 24.2249 180.931 24.5374 180.928 24.8821V26.3082C180.928 26.7401 181.007 27.1132 181.166 27.4276C181.329 27.742 181.558 27.9844 181.854 28.1548C182.149 28.3253 182.5 28.4105 182.905 28.4105C183.174 28.4105 183.42 28.3726 183.643 28.2969C183.867 28.2211 184.058 28.1075 184.217 27.956C184.376 27.8045 184.498 27.6188 184.581 27.3991L186.82 27.5469C186.706 28.0848 186.473 28.5545 186.121 28.956C185.772 29.3537 185.321 29.6643 184.768 29.8878C184.219 30.1075 183.585 30.2173 182.865 30.2173Z" fill="#4B5563"/>
<defs>
<linearGradient id="paint0_linear_1648_1068" x1="472.49" y1="25.9325" x2="472.49" y2="882.875" gradientUnits="userSpaceOnUse">
<stop stop-color="#86BBE5"/>
<stop offset="1" stop-color="#1072BA"/>
</linearGradient>
<clipPath id="clip0_1648_1068">
<rect width="24" height="24.0938" fill="white" transform="translate(20 12)"/>
</clipPath>
</defs>
</svg>
