<svg width="186" height="48" viewBox="0 0 186 48" fill="none" xmlns="http://www.w3.org/2000/svg">
<rect width="186" height="48" rx="6" fill="#E5E7EB"/>
<g clip-path="url(#clip0_1648_1069)">
<path d="M41.6563 29.8594C41.3376 30.0282 41.0094 30.1781 40.6719 30.3C39.5938 30.7032 38.4594 30.9094 37.3063 30.9094C32.8719 30.9094 29.0094 27.8625 29.0094 23.9438C29.0188 22.875 29.6094 21.8906 30.5469 21.3844C26.5344 21.5531 25.5032 25.7344 25.5032 28.1813C25.5032 35.1094 31.8875 35.8125 33.2657 35.8125C34.0063 35.8125 35.1219 35.5969 35.7969 35.3813L35.9188 35.3438C38.5063 34.4531 40.7 32.7094 42.1625 30.3938C42.275 30.2156 42.2188 29.9906 42.0501 29.8781C41.9282 29.8031 41.7782 29.7938 41.6563 29.8594Z" fill="url(#paint0_linear_1648_1069)"/>
<path opacity="0.35" d="M41.6563 29.8594C41.3376 30.0282 41.0094 30.1781 40.6719 30.3C39.5938 30.7032 38.4594 30.9094 37.3063 30.9094C32.8719 30.9094 29.0094 27.8625 29.0094 23.9438C29.0188 22.875 29.6094 21.8906 30.5469 21.3844C26.5344 21.5531 25.5032 25.7344 25.5032 28.1813C25.5032 35.1094 31.8875 35.8125 33.2657 35.8125C34.0063 35.8125 35.1219 35.5969 35.7969 35.3813L35.9188 35.3438C38.5063 34.4531 40.7 32.7094 42.1625 30.3938C42.275 30.2156 42.2188 29.9906 42.0501 29.8781C41.9282 29.8031 41.7782 29.7938 41.6563 29.8594Z" fill="url(#paint1_radial_1648_1069)"/>
<path d="M29.9094 34.6312C29.0751 34.1156 28.3532 33.4312 27.7813 32.6344C25.3157 29.2594 26.0563 24.525 29.4313 22.0594C29.7876 21.8062 30.1532 21.5719 30.5469 21.3844C30.8376 21.2437 31.3344 21 32.0001 21.0094C32.9469 21.0187 33.8376 21.4687 34.4094 22.2281C34.7844 22.7344 35.0001 23.3437 35.0094 23.9812C35.0094 23.9625 37.3063 16.5187 27.5094 16.5187C23.3938 16.5187 20.0094 20.4281 20.0094 23.85C19.9907 25.6594 20.3844 27.4594 21.1438 29.1C23.7313 34.6125 30.0313 37.3125 35.8063 35.3906C33.8282 36.0094 31.6719 35.7375 29.9094 34.6312Z" fill="url(#paint2_linear_1648_1069)"/>
<path opacity="0.41" d="M29.9094 34.6312C29.0751 34.1156 28.3532 33.4312 27.7813 32.6344C25.3157 29.2594 26.0563 24.525 29.4313 22.0594C29.7876 21.8062 30.1532 21.5719 30.5469 21.3844C30.8376 21.2437 31.3344 21 32.0001 21.0094C32.9469 21.0187 33.8376 21.4687 34.4094 22.2281C34.7844 22.7344 35.0001 23.3437 35.0094 23.9812C35.0094 23.9625 37.3063 16.5187 27.5094 16.5187C23.3938 16.5187 20.0094 20.4281 20.0094 23.85C19.9907 25.6594 20.3844 27.4594 21.1438 29.1C23.7313 34.6125 30.0313 37.3125 35.8063 35.3906C33.8282 36.0094 31.6719 35.7375 29.9094 34.6312Z" fill="url(#paint3_radial_1648_1069)"/>
<path d="M34.2781 25.9594C34.2031 26.0531 33.9688 26.1938 33.9688 26.4938C33.9688 26.7375 34.1281 26.9719 34.4094 27.1688C35.7594 28.1063 38.3 27.9844 38.3094 27.9844C39.3125 27.9844 40.2875 27.7125 41.15 27.2062C42.9125 26.175 44 24.2906 44 22.2469C44.0281 20.1469 43.25 18.75 42.9406 18.1313C40.9531 14.2406 36.6594 12 32 12C25.4375 12 20.0938 17.2687 20 23.8312C20.0469 20.4094 23.45 17.6438 27.5 17.6438C27.8281 17.6438 29.7031 17.6719 31.4375 18.5906C32.9656 19.3969 33.7719 20.3625 34.325 21.3281C34.9063 22.3312 35.0094 23.5875 35.0094 24.0938C35.0094 24.5906 34.7563 25.3406 34.2781 25.9594Z" fill="url(#paint4_radial_1648_1069)"/>
<path d="M34.2781 25.9594C34.2031 26.0531 33.9688 26.1938 33.9688 26.4938C33.9688 26.7375 34.1281 26.9719 34.4094 27.1688C35.7594 28.1063 38.3 27.9844 38.3094 27.9844C39.3125 27.9844 40.2875 27.7125 41.15 27.2062C42.9125 26.175 44 24.2906 44 22.2469C44.0281 20.1469 43.25 18.75 42.9406 18.1313C40.9531 14.2406 36.6594 12 32 12C25.4375 12 20.0938 17.2687 20 23.8312C20.0469 20.4094 23.45 17.6438 27.5 17.6438C27.8281 17.6438 29.7031 17.6719 31.4375 18.5906C32.9656 19.3969 33.7719 20.3625 34.325 21.3281C34.9063 22.3312 35.0094 23.5875 35.0094 24.0938C35.0094 24.5906 34.7563 25.3406 34.2781 25.9594Z" fill="url(#paint5_radial_1648_1069)"/>
</g>
<path d="M59.4716 18.3636V30H57.0114V18.3636H59.4716ZM63.8707 24.9545V30H61.4503V21.2727H63.7571V22.8125H63.8594C64.0526 22.3049 64.3764 21.9034 64.831 21.608C65.2855 21.3087 65.8366 21.1591 66.4844 21.1591C67.0904 21.1591 67.6188 21.2917 68.0696 21.5568C68.5204 21.822 68.8707 22.2008 69.1207 22.6932C69.3707 23.1818 69.4957 23.7652 69.4957 24.4432V30H67.0753V24.875C67.0791 24.3409 66.9427 23.9242 66.6662 23.625C66.3897 23.322 66.009 23.1705 65.5241 23.1705C65.1984 23.1705 64.9105 23.2405 64.6605 23.3807C64.4143 23.5208 64.2211 23.7254 64.081 23.9943C63.9446 24.2595 63.8745 24.5795 63.8707 24.9545ZM78.6648 23.7614L76.4489 23.8977C76.411 23.7083 76.3295 23.5379 76.2045 23.3864C76.0795 23.2311 75.9148 23.108 75.7102 23.017C75.5095 22.9223 75.2689 22.875 74.9886 22.875C74.6136 22.875 74.2973 22.9545 74.0398 23.1136C73.7822 23.2689 73.6534 23.4773 73.6534 23.7386C73.6534 23.947 73.7367 24.1231 73.9034 24.267C74.0701 24.411 74.3561 24.5265 74.7614 24.6136L76.3409 24.9318C77.1894 25.1061 77.822 25.3864 78.2386 25.7727C78.6553 26.1591 78.8636 26.6667 78.8636 27.2955C78.8636 27.8674 78.6951 28.3693 78.358 28.8011C78.0246 29.233 77.5663 29.5701 76.983 29.8125C76.4034 30.0511 75.7348 30.1705 74.9773 30.1705C73.822 30.1705 72.9015 29.9299 72.2159 29.4489C71.5341 28.964 71.1345 28.3049 71.017 27.4716L73.3977 27.3466C73.4697 27.6989 73.6439 27.9678 73.9205 28.1534C74.197 28.3352 74.5511 28.4261 74.983 28.4261C75.4072 28.4261 75.7481 28.3447 76.0057 28.1818C76.267 28.0152 76.3996 27.8011 76.4034 27.5398C76.3996 27.3201 76.3068 27.1402 76.125 27C75.9432 26.8561 75.6629 26.7462 75.2841 26.6705L73.7727 26.3693C72.9205 26.1989 72.286 25.9034 71.8693 25.483C71.4564 25.0625 71.25 24.5265 71.25 23.875C71.25 23.3144 71.4015 22.8314 71.7045 22.4261C72.0114 22.0208 72.4413 21.7083 72.9943 21.4886C73.5511 21.2689 74.2027 21.1591 74.9489 21.1591C76.0511 21.1591 76.9186 21.392 77.5511 21.858C78.1875 22.3239 78.5587 22.9583 78.6648 23.7614ZM85.0298 21.2727V23.0909H79.7741V21.2727H85.0298ZM80.9673 19.1818H83.3878V27.3182C83.3878 27.5417 83.4219 27.7159 83.4901 27.8409C83.5582 27.9621 83.6529 28.0473 83.7741 28.0966C83.8991 28.1458 84.0431 28.1705 84.206 28.1705C84.3196 28.1705 84.4332 28.161 84.5469 28.142C84.6605 28.1193 84.7476 28.1023 84.8082 28.0909L85.1889 29.892C85.0677 29.9299 84.8973 29.9735 84.6776 30.0227C84.4579 30.0758 84.1908 30.108 83.8764 30.1193C83.2931 30.142 82.7817 30.0644 82.3423 29.8864C81.9067 29.7083 81.5677 29.4318 81.3253 29.0568C81.0829 28.6818 80.9635 28.2083 80.9673 27.6364V19.1818ZM89.0952 30.1648C88.5384 30.1648 88.0421 30.0682 87.6065 29.875C87.1709 29.678 86.8262 29.3883 86.5724 29.0057C86.3224 28.6193 86.1974 28.1383 86.1974 27.5625C86.1974 27.0777 86.2865 26.6705 86.4645 26.3409C86.6425 26.0114 86.8849 25.7462 87.1918 25.5455C87.4986 25.3447 87.8471 25.1932 88.2372 25.0909C88.6312 24.9886 89.044 24.9167 89.4759 24.875C89.9834 24.822 90.3925 24.7727 90.7031 24.7273C91.0137 24.678 91.2391 24.6061 91.3793 24.5114C91.5194 24.4167 91.5895 24.2765 91.5895 24.0909V24.0568C91.5895 23.697 91.4759 23.4186 91.2486 23.2216C91.0251 23.0246 90.7069 22.9261 90.294 22.9261C89.8584 22.9261 89.5118 23.0227 89.2543 23.2159C88.9967 23.4053 88.8262 23.6439 88.7429 23.9318L86.5043 23.75C86.6179 23.2197 86.8414 22.7614 87.1747 22.375C87.508 21.9848 87.938 21.6856 88.4645 21.4773C88.9948 21.2652 89.6084 21.1591 90.3054 21.1591C90.7902 21.1591 91.2543 21.2159 91.6974 21.3295C92.1444 21.4432 92.5402 21.6193 92.8849 21.858C93.2334 22.0966 93.508 22.4034 93.7088 22.7784C93.9096 23.1496 94.0099 23.5947 94.0099 24.1136V30H91.7145V28.7898H91.6463C91.5062 29.0625 91.3187 29.303 91.0838 29.5114C90.849 29.7159 90.5668 29.8769 90.2372 29.9943C89.9077 30.108 89.527 30.1648 89.0952 30.1648ZM89.7884 28.4943C90.1444 28.4943 90.4588 28.4242 90.7315 28.2841C91.0043 28.1402 91.2183 27.947 91.3736 27.7045C91.5289 27.4621 91.6065 27.1875 91.6065 26.8807V25.9545C91.5308 26.0038 91.4266 26.0492 91.294 26.0909C91.1652 26.1288 91.0194 26.1648 90.8565 26.1989C90.6937 26.2292 90.5308 26.2576 90.3679 26.2841C90.205 26.3068 90.0573 26.3277 89.9247 26.3466C89.6406 26.3883 89.3925 26.4545 89.1804 26.5455C88.9683 26.6364 88.8035 26.7595 88.6861 26.9148C88.5687 27.0663 88.5099 27.2557 88.5099 27.483C88.5099 27.8125 88.6293 28.0644 88.8679 28.2386C89.1103 28.4091 89.4171 28.4943 89.7884 28.4943ZM98.3082 18.3636V30H95.8878V18.3636H98.3082ZM102.668 18.3636V30H100.247V18.3636H102.668ZM108.31 30V21.2727H110.73V30H108.31ZM109.526 20.1477C109.166 20.1477 108.857 20.0284 108.599 19.7898C108.346 19.5473 108.219 19.2576 108.219 18.9205C108.219 18.5871 108.346 18.3011 108.599 18.0625C108.857 17.8201 109.166 17.6989 109.526 17.6989C109.885 17.6989 110.192 17.8201 110.446 18.0625C110.704 18.3011 110.832 18.5871 110.832 18.9205C110.832 19.2576 110.704 19.5473 110.446 19.7898C110.192 20.0284 109.885 20.1477 109.526 20.1477ZM115.089 24.9545V30H112.669V21.2727H114.976V22.8125H115.078C115.271 22.3049 115.595 21.9034 116.05 21.608C116.504 21.3087 117.055 21.1591 117.703 21.1591C118.309 21.1591 118.838 21.2917 119.288 21.5568C119.739 21.822 120.089 22.2008 120.339 22.6932C120.589 23.1818 120.714 23.7652 120.714 24.4432V30H118.294V24.875C118.298 24.3409 118.161 23.9242 117.885 23.625C117.608 23.322 117.228 23.1705 116.743 23.1705C116.417 23.1705 116.129 23.2405 115.879 23.3807C115.633 23.5208 115.44 23.7254 115.3 23.9943C115.163 24.2595 115.093 24.5795 115.089 24.9545ZM126.371 30V18.3636H134.212V20.392H128.831V23.1648H133.808V25.1932H128.831V27.9716H134.234V30H126.371ZM139.338 30.142C138.675 30.142 138.075 29.9716 137.537 29.6307C137.003 29.286 136.579 28.7803 136.264 28.1136C135.954 27.4432 135.798 26.6212 135.798 25.6477C135.798 24.6477 135.959 23.8163 136.281 23.1534C136.603 22.4867 137.031 21.9886 137.565 21.6591C138.103 21.3258 138.692 21.1591 139.332 21.1591C139.821 21.1591 140.228 21.2424 140.554 21.4091C140.884 21.572 141.149 21.7765 141.349 22.0227C141.554 22.2652 141.709 22.5038 141.815 22.7386H141.889V18.3636H144.304V30H141.918V28.6023H141.815C141.702 28.8447 141.541 29.0852 141.332 29.3239C141.128 29.5587 140.861 29.7538 140.531 29.9091C140.205 30.0644 139.808 30.142 139.338 30.142ZM140.105 28.2159C140.495 28.2159 140.825 28.1098 141.094 27.8977C141.366 27.6818 141.575 27.3807 141.719 26.9943C141.866 26.608 141.94 26.1553 141.94 25.6364C141.94 25.1174 141.868 24.6667 141.724 24.2841C141.58 23.9015 141.372 23.6061 141.099 23.3977C140.827 23.1894 140.495 23.0852 140.105 23.0852C139.707 23.0852 139.372 23.1932 139.099 23.4091C138.827 23.625 138.62 23.9242 138.48 24.3068C138.34 24.6894 138.27 25.1326 138.27 25.6364C138.27 26.1439 138.34 26.5928 138.48 26.983C138.624 27.3693 138.83 27.6723 139.099 27.892C139.372 28.108 139.707 28.2159 140.105 28.2159ZM150.226 33.4545C149.442 33.4545 148.769 33.3466 148.209 33.1307C147.652 32.9186 147.209 32.6288 146.879 32.2614C146.55 31.8939 146.336 31.4811 146.237 31.0227L148.476 30.7216C148.544 30.8958 148.652 31.0587 148.8 31.2102C148.947 31.3617 149.143 31.483 149.385 31.5739C149.631 31.6686 149.93 31.7159 150.283 31.7159C150.809 31.7159 151.243 31.5871 151.584 31.3295C151.929 31.0758 152.101 30.6496 152.101 30.0511V28.4545H151.999C151.893 28.697 151.733 28.9261 151.521 29.142C151.309 29.358 151.036 29.5341 150.703 29.6705C150.37 29.8068 149.972 29.875 149.51 29.875C148.855 29.875 148.258 29.7235 147.72 29.4205C147.186 29.1136 146.76 28.6458 146.442 28.017C146.127 27.3845 145.97 26.5852 145.97 25.6193C145.97 24.6307 146.131 23.8049 146.453 23.142C146.775 22.4792 147.203 21.983 147.737 21.6534C148.275 21.3239 148.864 21.1591 149.504 21.1591C149.993 21.1591 150.402 21.2424 150.732 21.4091C151.061 21.572 151.326 21.7765 151.527 22.0227C151.732 22.2652 151.889 22.5038 151.999 22.7386H152.089V21.2727H154.493V30.0852C154.493 30.8277 154.311 31.4489 153.947 31.9489C153.584 32.4489 153.08 32.8239 152.436 33.0739C151.796 33.3277 151.059 33.4545 150.226 33.4545ZM150.277 28.0568C150.667 28.0568 150.997 27.9602 151.266 27.767C151.538 27.5701 151.747 27.2898 151.891 26.9261C152.038 26.5587 152.112 26.1193 152.112 25.608C152.112 25.0966 152.04 24.6534 151.896 24.2784C151.752 23.8996 151.544 23.6061 151.271 23.3977C150.999 23.1894 150.667 23.0852 150.277 23.0852C149.879 23.0852 149.544 23.1932 149.271 23.4091C148.999 23.6212 148.792 23.9167 148.652 24.2955C148.512 24.6742 148.442 25.1117 148.442 25.608C148.442 26.1117 148.512 26.5473 148.652 26.9148C148.796 27.2784 149.002 27.5606 149.271 27.7614C149.544 27.9583 149.879 28.0568 150.277 28.0568ZM160.396 30.1705C159.499 30.1705 158.726 29.9886 158.078 29.625C157.434 29.2576 156.938 28.7386 156.589 28.0682C156.241 27.3939 156.067 26.5966 156.067 25.6761C156.067 24.7784 156.241 23.9905 156.589 23.3125C156.938 22.6345 157.429 22.1061 158.061 21.7273C158.697 21.3485 159.444 21.1591 160.3 21.1591C160.875 21.1591 161.411 21.2519 161.908 21.4375C162.408 21.6193 162.843 21.8939 163.214 22.2614C163.589 22.6288 163.881 23.0909 164.089 23.6477C164.298 24.2008 164.402 24.8485 164.402 25.5909V26.2557H157.033V24.7557H162.124C162.124 24.4072 162.048 24.0985 161.896 23.8295C161.745 23.5606 161.535 23.3504 161.266 23.1989C161 23.0436 160.692 22.9659 160.339 22.9659C159.972 22.9659 159.646 23.0511 159.362 23.2216C159.082 23.3883 158.862 23.6136 158.703 23.8977C158.544 24.178 158.463 24.4905 158.459 24.8352V26.2614C158.459 26.6932 158.538 27.0663 158.697 27.3807C158.86 27.6951 159.089 27.9375 159.385 28.108C159.68 28.2784 160.031 28.3636 160.436 28.3636C160.705 28.3636 160.951 28.3258 161.175 28.25C161.398 28.1742 161.589 28.0606 161.749 27.9091C161.908 27.7576 162.029 27.572 162.112 27.3523L164.351 27.5C164.237 28.0379 164.004 28.5076 163.652 28.9091C163.304 29.3068 162.853 29.6174 162.3 29.8409C161.75 30.0606 161.116 30.1705 160.396 30.1705Z" fill="#4B5563"/>
<defs>
<linearGradient id="paint0_linear_1648_1069" x1="25.5035" y1="28.5956" x2="42.2176" y2="28.5956" gradientUnits="userSpaceOnUse">
<stop stop-color="#0C59A4"/>
<stop offset="1" stop-color="#114A8B"/>
</linearGradient>
<radialGradient id="paint1_radial_1648_1069" cx="0" cy="0" r="1" gradientUnits="userSpaceOnUse" gradientTransform="translate(34.7368 28.7284) scale(8.94098 8.49299)">
<stop offset="0.72" stop-opacity="0"/>
<stop offset="0.95" stop-opacity="0.53"/>
<stop offset="1"/>
</radialGradient>
<linearGradient id="paint2_linear_1648_1069" x1="34.3223" y1="21.3512" x2="23.8811" y2="32.7242" gradientUnits="userSpaceOnUse">
<stop stop-color="#1B9DE2"/>
<stop offset="0.16" stop-color="#1595DF"/>
<stop offset="0.67" stop-color="#0680D7"/>
<stop offset="1" stop-color="#0078D4"/>
</linearGradient>
<radialGradient id="paint3_radial_1648_1069" cx="0" cy="0" r="1" gradientUnits="userSpaceOnUse" gradientTransform="translate(26.6196 30.6571) rotate(-81.3826) scale(13.4435 10.8632)">
<stop offset="0.76" stop-opacity="0"/>
<stop offset="0.95" stop-opacity="0.5"/>
<stop offset="1"/>
</radialGradient>
<radialGradient id="paint4_radial_1648_1069" cx="0" cy="0" r="1" gradientUnits="userSpaceOnUse" gradientTransform="translate(22.4236 16.4431) rotate(92.2911) scale(18.9892 40.4492)">
<stop stop-color="#35C1F1"/>
<stop offset="0.11" stop-color="#34C1ED"/>
<stop offset="0.23" stop-color="#2FC2DF"/>
<stop offset="0.31" stop-color="#2BC3D2"/>
<stop offset="0.67" stop-color="#36C752"/>
</radialGradient>
<radialGradient id="paint5_radial_1648_1069" cx="0" cy="0" r="1" gradientUnits="userSpaceOnUse" gradientTransform="translate(42.5057 19.2568) rotate(73.7366) scale(9.12387 7.42096)">
<stop stop-color="#66EB6E"/>
<stop offset="1" stop-color="#66EB6E" stop-opacity="0"/>
</radialGradient>
<clipPath id="clip0_1648_1069">
<rect width="24" height="24" fill="white" transform="translate(20 12)"/>
</clipPath>
</defs>
</svg>
