<svg width="200" height="200" viewBox="0 0 200 200" fill="none" xmlns="http://www.w3.org/2000/svg">
<path d="M59.2343 163.954L59.2054 163.915L59.1746 163.877C46.0683 147.78 35.4586 128.099 36.8453 107.169C38.1969 92.2158 44.9808 78.2757 55.9145 67.9851C66.8516 57.6914 81.1823 51.7636 96.195 51.323C101.103 51.2272 106.006 51.7005 110.806 52.7334C124.897 55.9351 137.4 64.0205 146.101 75.5577C154.785 87.0725 159.122 101.284 158.348 115.684C154.792 139.014 143.042 160.317 125.202 175.77L125.187 175.783L125.172 175.797C116.411 183.697 106.069 191.056 94.6155 189.702C80.4491 184.976 68.0897 175.983 59.2343 163.954Z" fill="#34D399" stroke="#10B981" stroke-width="4"/>
<path d="M92.6534 45.0008C86.2001 32.439 92.8609 8.24907 100.747 6.99746C103.976 6.81804 107.196 7.48553 110.088 8.93379C112.98 10.3821 115.444 12.5608 117.234 15.2542C117.588 17.2274 105.757 21.8798 104.855 31.3794C104.281 36.6296 104.338 41.9296 105.025 47.1662L92.6534 45.0008Z" fill="#059669" stroke="#047857" stroke-width="4"/>
<path d="M96.2624 41.5068C65.9349 41.6139 36.7571 62.9046 30.3163 91.9579C28.5073 98.1822 35.2891 102.523 35.2324 102.396C36.6394 90.3874 49.444 89.2945 65.1548 86.7343C86.6533 83.6434 108.481 83.6049 129.99 86.62C144.678 88.6881 157.457 92.3961 159.575 101.779C161.519 100.74 163.035 99.0496 163.856 97.0039C164.677 94.9582 164.752 92.6885 164.066 90.5937C160.092 75.8856 151.191 62.9868 138.85 54.0525C126.509 45.1182 111.476 40.6896 96.2624 41.5068Z" fill="#059669" stroke="#047857" stroke-width="4"/>
</svg>
