<svg width="200" height="200" viewBox="0 0 200 200" fill="none" xmlns="http://www.w3.org/2000/svg">
<path d="M59.234 163.954L59.2051 163.915L59.1743 163.877C46.0681 147.78 35.4584 128.099 36.845 107.169C38.1967 92.2159 44.9805 78.2758 55.9143 67.9851C66.8514 57.6914 81.182 51.7636 96.1947 51.323C101.103 51.2272 106.006 51.7005 110.805 52.7334C124.896 55.9351 137.4 64.0205 146.1 75.5577C154.785 87.0726 159.121 101.284 158.348 115.684C154.792 139.014 143.041 160.317 125.202 175.77L125.186 175.783L125.172 175.797C116.411 183.697 106.069 191.056 94.6152 189.702C80.4488 184.976 68.0895 175.983 59.234 163.954Z" fill="#F59E0B" stroke="#D97706" stroke-width="4"/>
<path d="M92.6535 45.0007C86.2002 32.439 92.861 8.24906 100.747 6.99744C103.976 6.81803 107.196 7.48552 110.088 8.93378C112.98 10.382 115.444 12.5608 117.234 15.2542C117.588 17.2274 105.757 21.8797 104.855 31.3794C104.281 36.6295 104.338 41.9296 105.025 47.1662L92.6535 45.0007Z" fill="#92400E" stroke="#78350F" stroke-width="4"/>
<path d="M96.2622 41.5068C65.9348 41.6139 36.757 62.9046 30.3161 91.9579C28.5072 98.1822 35.289 102.523 35.2323 102.396C36.6392 90.3874 49.4439 89.2945 65.1547 86.7343C86.6532 83.6434 108.481 83.6049 129.99 86.62C144.678 88.6881 157.457 92.3961 159.575 101.779C161.519 100.74 163.035 99.0496 163.856 97.0039C164.677 94.9582 164.751 92.6885 164.065 90.5936C160.092 75.8856 151.191 62.9867 138.85 54.0525C126.509 45.1182 111.476 40.6896 96.2622 41.5068Z" fill="#92400E" stroke="#78350F" stroke-width="4"/>
</svg>
